<svg width="200" height="200" viewBox="0 0 200 200" xmlns="http://www.w3.org/2000/svg">
  <!-- Solid background color -->
  <rect x="0" y="0" width="200" height="200" fill="#F8F8F8"/>

  <!-- Geometric daisy petals -->
  <g fill="#FFECB3" stroke="#FFC107" stroke-width="1.5">
    <polygon points="100,40 115,70 100,100 85,70" transform="rotate(0 100 100)"/>
    <polygon points="100,40 115,70 100,100 85,70" transform="rotate(45 100 100)"/>
    <polygon points="100,40 115,70 100,100 85,70" transform="rotate(90 100 100)"/>
    <polygon points="100,40 115,70 100,100 85,70" transform="rotate(135 100 100)"/>
    <polygon points="100,40 115,70 100,100 85,70" transform="rotate(180 100 100)"/>
    <polygon points="100,40 115,70 100,100 85,70" transform="rotate(225 100 100)"/>
    <polygon points="100,40 115,70 100,100 85,70" transform="rotate(270 100 100)"/>
    <polygon points="100,40 115,70 100,100 85,70" transform="rotate(315 100 100)"/>
  </g>

  <!-- Daisy center -->
  <circle cx="100" cy="100" r="30" fill="#FFD700"/>

  <!-- Text "WQ" -->
  <text x="100" y="110" font-family="Verdana, sans-serif" font-size="40" font-weight="bold" text-anchor="middle" fill="#607D8B">WQ</text>

  <!-- Text "Daisy" -->
  <text x="100" y="160" font-family="Verdana, sans-serif" font-size="18" text-anchor="middle" fill="#795548">Daisy</text>
</svg>
